<svg xmlns="http://www.w3.org/2000/svg" width="256" height="256"><path fill-opacity=".016" d="M0 128.004v128.004l128.25-.254 128.25-.254.254-127.75L257.008 0H0v128.004m.485.496c0 70.4.119 99.053.265 63.672.146-35.38.146-92.98 0-128C.604 29.153.485 58.1.485 128.5" fill="#1976D2" fill-rule="evenodd"/><path fill-opacity=".243" d="M97.679 1.75C96.077 3.353 91.926 3.542 48.215 4L.5 4.5.237 40.327l-.262 35.828 4.033-.291 4.033-.292.229 45.714L8.5 167H0v89.008l128.25-.254 128.25-.254.26-44.508.26-44.508-4.51.359-4.51.358-.001-45.85-.002-45.851h8.503l.263-35.713.262-35.713-47.633-.055c-45.84-.053-47.739-.13-50.417-2.037C156.357.118 154.503 0 127.81 0c-25.697 0-28.547.166-30.131 1.75M.451 40.5c0 19.8.134 28.042.297 18.315.164-9.727.164-25.927.001-36S.452 20.7.451 40.5M27 39.5V48h202V31H27v8.5m8.999 81.75L36 167h8v-53h62v53h35v-35h27v35h8v-35.056l13.75.278 13.75.278V167.001h8.25L220 167l.001-45.75V75.5l-29.641.28-29.641.279-3.002 2.526c-15.015 12.634-39.425 13.352-56.678 1.667L95.5 76.5 65.749 76l-29.751-.5.001 45.75M53.5 128v4H97v-8H53.5v4m99.262 14.707c1.244.239 3.044.23 4-.02s-.062-.446-2.262-.435c-2.2.011-2.982.216-1.738.455m33.612 9.793c.002 6.05.167 8.396.366 5.213.199-3.182.197-8.132-.004-11-.201-2.867-.364-.263-.362 5.787m2.876-9.811c.963.252 2.537.252 3.5 0 .963-.251.175-.457-1.75-.457s-2.713.206-1.75.457M54 161.25v2.25h43V159H54v2.25m12.304 5.497c5.943.177 15.393.176 21-.002 5.608-.178.746-.323-10.804-.322-11.55.001-16.138.147-10.196.324M.46 211.5c0 24.75.13 34.732.289 22.182.159-12.55.159-32.8 0-45C.59 176.482.46 186.75.46 211.5M36 225v13h184v-26H36v13" fill="#1976D2" fill-rule="evenodd"/><path fill-opacity=".331" d="M97.5 2c-1.759 1.944-3.089 2-47.405 2.014-25.077.007-46.607.285-47.845.616C.222 5.174.003 5.839.03 11.367c.023 4.654.277 5.711 1.05 4.383C2.029 14.122 5.453 14 50.363 14h48.263l2.937-3.093c3.594-3.785 11.242-7.834 17.937-9.496 4.814-1.195 4.533-1.244-7.595-1.326C100.519.008 99.136.192 97.5 2m39-.553c7.803 1.994 10.577 3.344 16.666 8.114L158.831 14h47.385c35.521 0 47.684.3 48.584 1.2.933.933 1.2-.043 1.2-4.393 0-4.178-.4-5.747-1.582-6.2-.87-.334-22.4-.607-47.845-.607-44.993 0-46.313-.055-48.073-2C156.864.192 155.481.008 144.095.085c-12.239.083-12.454.121-7.595 1.362M17.227 39.75L17.5 57.5l110.75.254 110.75.255V22H16.954l.273 17.75M27 39.5V48h202V31H27v8.5m-27 31V75h9v93H0v88h9v-61h238v61.11l4.75-.305 4.75-.305.262-44 .262-44H247.5l-.26-46.195-.26-46.195 4.76-.305 4.76-.305.295-4.5.295-4.5-49.695.269-49.694.268-3.975 3.592c-8.982 8.115-24.108 11.417-36.276 7.919-6.153-1.769-13.821-6.091-16.96-9.559C98.74 66.055 97.326 66 49.345 66H0v4.5m.286 0c.008 2.75.202 3.756.432 2.236.229-1.52.223-3.77-.014-5-.237-1.23-.425.014-.418 2.764m35.172 5.75c-.264.688-.362 21.5-.219 46.25l.261 45 4.25.307 4.25.308V115h62v53h34.954l.273-17.75.273-17.75 13.25-.279 13.25-.279v36.173l4.25-.308 4.25-.307.21-17.5.211-17.5 13.039-.279 13.04-.279v36.136l8.75-.289 8.75-.289.26-46.25.26-46.25h-59.003l-4.26 3.252c-2.343 1.789-7.185 4.601-10.759 6.25-6.121 2.824-7.223 2.998-18.998 2.998-12.023 0-12.761-.124-19.347-3.243-3.766-1.784-8.556-4.596-10.644-6.25L94.212 75H65.075c-22.388 0-29.249.29-29.617 1.25M18 121.5V167h8V76h-8v45.5m212 0V167h8V76h-8v45.5M53 128v4h44v-8H53v4m11.195 14.746c5.882.176 15.782.177 22 .001s1.405-.32-10.695-.321c-12.1-.001-17.187.143-11.305.32M150 151.375c0 5.156.281 10.781.625 12.5.571 2.855.96 3.125 4.5 3.125H159v-25h-9v9.375m36 3.125V167h8v-25h-8v12.5M54.232 147c0 1.925.206 2.713.457 1.75.252-.963.252-2.537 0-3.5-.251-.963-.457-.175-.457 1.75m-1.039 16.25l.307 4.25 21.75.297 21.75.298V159H52.885l.308 4.25M.46 212c0 24.475.13 34.488.289 22.25.159-12.237.159-32.262 0-44.5C.59 177.513.46 187.525.46 212m25.771 13.25l.269 22.25h203l.269-22.25.269-22.25H25.962l.269 22.25M36 225v13h185v-26H36v13" fill="#1976D2" fill-rule="evenodd"/><path fill-opacity=".984" d="M97.5 2.469l-3 2.459-47.25.036L0 5v5.571c0 5.065.143 5.429 1.571 4C2.956 13.187 8.819 13 50.916 13c47.289 0 47.793-.021 49.678-2.104 2.586-2.857 9.816-6.996 15.893-9.097L121.5.065 111 .038c-9.695-.026-10.73.161-13.5 2.431m42.591-.573c5.513 1.764 13.273 6.428 15.839 9.52 1.166 1.405 6.683 1.584 48.758 1.584 30.792 0 48.122.363 49.378 1.035 1.793.96 1.934.668 1.934-4V5h-94.211l-2.971-2.5C156.043.166 155.139.004 145.173.054L134.5.108l5.591 1.788M18 39.5V57h220V22H18v17.5m8.211.25l.289 8.75 101.75.255 101.75.254V31H25.922l.289 8.75M0 70.5V75h9v93H0v9.008l128.25-.254 128.25-.254.295-4.5.295-4.5-5.045.347-5.045.346V75.11l4.75-.305 4.75-.305.295-4.5.295-4.5-49.017.269-49.016.268-6.434 4.87c-8.184 6.195-14.908 8.506-24.623 8.466-9.546-.04-17.382-2.807-25.081-8.855L97.169 66H0v4.5m.286 0c.008 2.75.202 3.756.432 2.236.229-1.52.223-3.77-.014-5-.237-1.23-.425.014-.418 2.764M18 121.5V168h9V75h-9v46.5m17 0V168h9v-53h62v53.046l17.75-.273 17.75-.273.274-17.25.273-17.25H168v35h9v-35h26v35h18V75h-59.098l-5.701 4.002c-17.164 12.048-40.421 11.898-56.46-.364L94.983 75H35v46.5m194.48-45.308c-.276.719-.384 21.558-.241 46.308l.261 45h9v-92l-4.259-.308c-2.822-.204-4.429.134-4.761 1M53 128v5h44v-10H53v5m0 17.5v4.5h44v-9H53v4.5m97 9V168h9v-27h-9v13.5m35 0V168h9v-27h-9v13.5m-132 9v4.5h44v-9H53v4.5m-52.714 9c.008 2.75.202 3.756.432 2.236.229-1.52.223-3.77-.014-5-.237-1.23-.425.014-.418 2.764M0 220.508V256h9v-62h238v62.11l4.75-.305 4.75-.305.262-35.5.263-35.5-128.513.258L0 185.015v35.493m.451-.008c0 19.8.134 28.042.297 18.315.164-9.727.164-25.927.001-36S.452 200.7.451 220.5M27 225v22h202v-44H27v22m8.221.25l.279 13.25 92.75.255 92.75.255V212H34.942l.279 13.25" fill="#1976D2" fill-rule="evenodd"/></svg>