<svg xmlns="http://www.w3.org/2000/svg" width="256" height="256"><path fill-opacity=".016" d="M0 128.004v128.004l128.25-.254 128.25-.254.254-127.75L257.008 0H0v128.004m.485.496c0 70.4.119 99.053.265 63.672.146-35.38.146-92.98 0-128C.604 29.153.485 58.1.485 128.5" fill="#1976D2" fill-rule="evenodd"/><path fill-opacity=".362" d="M33.394 37.172c-.385.622-.015 1.632.822 2.244 1.287.941.245 2.719-6.802 11.598-7.926 9.987-8.324 10.728-8.368 15.581-.052 5.718 1.886 8.405 6.06 8.405C29.811 75 32 72.414 32 66.855c0-4.638.594-5.889 7.562-15.944L47.123 40h4.974c5.777 0 6.031-1.229-2.736 13.23C44.848 60.672 44 62.831 44 66.88c0 4.775-1.989 8.12-4.829 8.12C38.328 75 38 79.245 38 90.171c0 12.714-.268 15.468-1.655 17-1.503 1.661-1.507 1.829-.047 1.829 1.432 0 1.612 2.619 1.643 23.856.033 22.562-.073 23.953-1.953 25.655-1.093.989-1.988 2.629-1.988 3.644 0 1.442.765 1.845 3.5 1.845H41l-.009 13.75c-.004 7.563-.292 16.113-.639 19l-.631 5.25-4.11.005c-6.136.006-29.771 3.655-32.893 5.077-6.632 3.022-1.862 5.425 15.755 7.934 22.521 3.209 41.505 4.158 94.027 4.701 88.616.916 144.5-3.455 144.5-11.302 0-.843-.368-1.306-.817-1.028-.45.278-2.628-.119-4.841-.881-2.213-.763-8.032-1.896-12.933-2.519-14.706-1.87-13.409-.999-13.409-9.006 0-3.84-.4-6.981-.889-6.981-.488 0-1.197-1.643-1.573-3.65-.615-3.277-2.728-5.98-7.927-10.139-1.048-.839-1.611-2.848-1.611-5.75 0-4.29.115-4.461 3-4.461 2.268 0 3-.458 3-1.878 0-1.032-.675-2.437-1.5-3.122-1.289-1.07-1.5-7.038-1.5-42.403V75.438l-3-1.132c-2.817-1.063-3-1.458-3.002-6.469-.001-4.791-.666-6.444-6.5-16.153-3.574-5.948-6.498-11.011-6.498-11.25 0-.239 2.175-.434 4.833-.434h4.834l7.673 11.25c6.829 10.01 7.673 11.756 7.667 15.845-.008 5.402 2.103 7.905 6.667 7.905 4.24 0 6.326-2.725 6.326-8.263 0-4.101-.635-5.408-5.785-11.921-11.154-14.104-11.679-14.911-10.267-15.784 4.618-2.854-1.417-3.051-92.467-3.022-67.642.022-92.575.334-93.087 1.162M62.73 51.511C56.646 63.734 55.338 70.376 58.5 73c1.266 1.051 1.5 5.485 1.5 28.422 0 18.238.358 27.536 1.087 28.265.783.783.783 1.275 0 1.759-.598.37-1.087 2.88-1.087 5.578 0 3.827.425 5.133 1.934 5.941 2.703 1.446 4.101 1.289 3.457-.388-.987-2.572 2.934-3.378 15.474-3.178 10.343.164 12.57.475 13.611 1.899 1.642 2.245 4.169 2.169 4.773-.144.442-1.687 1.793-1.854 15.726-1.94 14.289-.089 15.275.026 15.751 1.845.279 1.068 1.355 1.941 2.391 1.941 1.633 0 1.883-.79 1.883-5.951v-5.951l15.25-.299c18.67-.366 19.75-.238 19.75 2.339 0 1.852.579 1.979 7.905 1.729 5.434-.185 8.403.144 9.5 1.054 2.102 1.744 2.028 3.819-.155 4.39-.963.251-.062.509 2 .573L193 141v-9.941c0-5.655-.438-10.212-1.016-10.569-.559-.346-.763-1.038-.454-1.538.309-.501.076-1.82-.519-2.931-.858-1.603-.777-2.021.393-2.021 2.318 0 2.483-6.949.242-10.137-2.201-3.129-3.026-12.863-1.09-12.863 1.845 0 2.444-2.444 2.444-9.975 0-5.132.37-6.953 1.5-7.387 1.103-.423 1.5-2.167 1.5-6.595 0-5.251-.667-7.361-5.228-16.531L185.544 40h-10.466l4.461 10.648c5.07 12.102 5.951 19.694 2.632 22.697-2.298 2.08-6.06 2.121-8.948.098-1.812-1.268-2.223-2.517-2.223-6.748 0-3.288-1.313-9.132-3.583-15.943L163.835 40h-4.918c-2.704 0-4.917.229-4.917.508 0 .28 1.125 5.27 2.5 11.089 3.223 13.638 3.3 19.729.277 21.846-2.338 1.638-6.518 2.033-8.377.792-2.177-1.454-3.403-5.2-3.247-9.924.087-2.646-.417-9.199-1.121-14.561L142.753 40h-5.283c-4.496 0-5.231.261-4.938 1.75.19.962.595 7.941.899 15.507.517 12.816.418 13.894-1.438 15.75-2.611 2.611-7.426 2.56-10.094-.108-2.02-2.02-2.072-2.69-1.378-17.5L121.242 40h-5.121c-2.816 0-5.13.337-5.14.75-.011.413-.672 5.25-1.469 10.75s-1.463 12.293-1.48 15.095c-.037 5.929-2.013 8.405-6.706 8.405C96.953 75 95 72.299 95 66.25c0-4.214 2.403-16.929 4.64-24.555.471-1.605-.059-1.771-4.76-1.5l-5.29.305-3.258 10c-1.936 5.944-3.273 12.129-3.295 15.25C82.993 71.947 80.671 75 76 75c-4.2 0-7-3.122-7-7.806 0-3.396 4.841-17.107 8.631-24.444l1.42-2.75H68.46l-5.73 11.511M49 78.777c0 2.078.643 4.696 1.429 5.818.786 1.122 1.61 3.809 1.832 5.972.221 2.163.478-.455.571-5.817.157-9.139.043-9.75-1.832-9.75-1.647 0-2 .667-2 3.777m152 .376v4.153L203 81c1.1-1.268 2-3.137 2-4.153 0-1.18-.722-1.847-2-1.847-1.679 0-2 .667-2 4.153M99.103 84.808c-.678 1.267-1.054 2.839-.835 3.495.225.675.931.194 1.629-1.111.678-1.267 1.054-2.839.835-3.495-.225-.675-.931-.194-1.629 1.111m-6.452 1.286c-1.084 2.318-.345 16.44.849 16.23.55-.098 1.526-2.123 2.17-4.5l1.169-4.324.081 4.75c.044 2.612.53 4.75 1.08 4.75s1.007-.562 1.015-1.25c.011-.844.319-.77.949.226.762 1.205 1.114 1.022 1.921-1 .964-2.415.99-2.421 1.052-.226.07 2.501 1.052 2.861 2.863 1.05.933-.933 1.2-.933 1.2 0 0 2.682 1.902.969 2.277-2.05l.403-3.25.16 3.25c.188 3.813 1.278 4.119 3.567 1l1.651-2.25-1.122 2.357c-.836 1.759-.827 2.648.039 3.5 1.961 1.933 3.882-1.993 3.882-7.936 0-5.306-1.343-7.87-2.848-5.436-.597.966-.891.939-1.325-.122-.432-1.054-.912-.923-2.121.578-1.317 1.635-1.563 1.684-1.563.312 0-1.791-3.606-2.075-5.75-.454-.852.644-1.255.508-1.265-.427-.012-1.078-.224-1.05-.985.128-.646 1-.974 1.083-.985.25-.008-.687-.653-1.25-1.432-1.25-.779 0-1.643.563-1.921 1.25-.277.688-.547-.55-.598-2.75-.117-4.952-1.941-2.885-2.206 2.5-.144 2.933-.277 2.69-.817-1.5-.426-3.303-.898-4.459-1.39-3.406m36.001.371c-1.23 3.205-1.926 16.535-.863 16.535.585 0 1.27-.787 1.522-1.75.435-1.667.463-1.667.573 0 .191 2.882 1.992 1.981 2.997-1.5.899-3.113.942-3.136 1.029-.559.109 3.243 1.65 4.419 3.634 2.773 1.15-.955 1.456-.931 1.456.114 0 2.125 1.776-.274 2.279-3.078.376-2.096.471-1.975.585.75.125 2.99 2.117 4.841 2.151 2 .01-.827.264-.892.75-.191 1.239 1.785 8.07 1.443 8.569-.428.401-1.506.443-1.506.55.002.146 2.062 3.604 3.012 6.69 1.839 1.696-.645 2.769-.486 3.821.566.804.804 1.936 1.462 2.515 1.462 1.308 0 2.481-4.397 1.833-6.874-.265-1.013-.09-2.542.389-3.398.97-1.732.164-4.728-1.271-4.728-.509 0-1.332 1.013-1.83 2.25l-.904 2.25-.064-2.333c-.078-2.895-2.104-2.408-3.798.912l-1.236 2.421-.014-2.867c-.013-2.4-.35-2.779-2.077-2.327-1.83.478-1.99.209-1.421-2.383.4-1.822.235-2.923-.438-2.923-.593 0-1.086.563-1.094 1.25-.011.836-.342.753-1-.25-.876-1.333-1.094-1.333-1.97 0-.541.825-.991 2.568-1 3.872-.013 2.024-.242 2.185-1.557 1.093-2-1.66-3.137-.474-4.368 4.552-.802 3.277-.873 2.698-.403-3.267.399-5.057.23-7.25-.558-7.25-.621 0-1.129.914-1.129 2.031 0 1.118-.787 2.322-1.75 2.677-.963.356-2.081 1.129-2.485 1.719-.429.627-.755.241-.783-.927-.046-1.884-.163-1.863-2.015.361L134 93.222v-4.111c0-4.617-1.642-5.596-2.284-1.361l-.416 2.75-.15-2.75c-.161-2.952-1.578-3.682-2.498-1.285m-7.899 4.125c-.841 1.361-.475 16.408.399 16.409 1.056.001 2.825-5.954 3.517-11.842.472-4.015.336-5.278-.513-4.753-.636.393-1.201 1.475-1.256 2.405-.058.991-.386.66-.792-.799-.388-1.392-.985-2.018-1.355-1.42M136.232 97c0 1.925.206 2.713.457 1.75.252-.963.252-2.537 0-3.5-.251-.963-.457-.175-.457 1.75m19.838-.25c.063 2.437.168 2.522.93.75 1.174-2.731 1.174-3.5 0-3.5-.55 0-.968 1.237-.93 2.75m3.009.833c.048 1.165.285 1.402.604.605.289-.722.253-1.585-.079-1.917-.332-.332-.568.258-.525 1.312m-109.236 5.469c.189 2.672.977 5.384 1.75 6.026 1.178.977 1.407.338 1.407-3.92 0-3.821-.436-5.321-1.75-6.026-1.574-.843-1.715-.448-1.407 3.92M103 118.063v10.064l3.25-.314c2.963-.285 3.294-.662 3.75-4.254l.5-3.942 2.764 4.192c1.52 2.305 3.38 4.191 4.132 4.191.752 0 2.765-2.138 4.474-4.75l3.106-4.75.012 4.75L125 128h7v-20l-4.25.032c-3.909.03-4.501.399-7.382 4.603l-3.131 4.57-3.167-4.603c-2.861-4.159-3.547-4.602-7.118-4.602H103v10.063m33.672-8.02c-3.193 2.512-4.37 7.859-2.646 12.021 3.686 8.898 21.974 7.529 21.974-1.646 0-1.657-6.51-2.02-7.5-.418-.34.55-2.166 1-4.059 1-3.152 0-3.441-.251-3.441-2.981 0-3.772 3.727-5.083 7.472-2.629 1.352.885 3.598 1.61 4.993 1.61 3.362 0 3.402-3.224.08-6.545-3.31-3.311-12.89-3.544-16.873-.412M49 113c0 .55.477 1 1.059 1s.781-.45.441-1-.816-1-1.059-1-.441.45-.441 1m0 21.51c0 5.219.188 9.49.418 9.49 2.907 0 3.582-1.58 3.582-8.385 0-5.933-.345-7.466-2-8.883-1.98-1.695-2-1.617-2 7.778m153.75-4.427c-2.454 2.689-2.333 9.995.217 13.056l1.966 2.361.034-8.75c.018-4.812-.08-8.713-.217-8.667-.137.046-1.037.946-2 2M108 144c-1.282.828-1.246.972.25.985.963.008 1.75-.435 1.75-.985 0-1.22-.113-1.22-2 0M.079 209.583c.048 1.165.285 1.402.604.605.289-.722.253-1.585-.079-1.917-.332-.332-.568.258-.525 1.312" fill="#1976D2" fill-rule="evenodd"/><path fill-opacity=".294" d="M33.733 38.124c.679.684 1.486.991 1.793.683.308-.308-.247-.867-1.233-1.243-1.425-.542-1.54-.428-.56.56m5.517 1.592c1.513.229 3.987.229 5.5 0s.275-.416-2.75-.416-4.263.187-2.75.416m21 0c1.513.229 3.987.229 5.5 0s.275-.416-2.75-.416-4.263.187-2.75.416m21.518.009c1.797.222 4.497.218 6-.01 1.503-.229.032-.411-3.268-.405-3.3.005-4.529.192-2.732.415m21 0c1.797.222 4.497.218 6-.01 1.503-.229.032-.411-3.268-.405-3.3.005-4.529.192-2.732.415m21.482-.009c1.513.229 3.988.229 5.5 0s.275-.416-2.75-.416-4.263.187-2.75.416m21 0c1.512.229 3.988.229 5.5 0s.275-.416-2.75-.416-4.262.187-2.75.416m21.518.009c1.797.222 4.497.218 6-.01 1.503-.229.032-.411-3.268-.405-3.3.005-4.529.192-2.732.415m21 0c1.797.222 4.497.218 6-.01 1.503-.229.032-.411-3.268-.405-3.3.005-4.529.192-2.732.415m21.482-.009c1.512.229 3.988.229 5.5 0s.275-.416-2.75-.416-4.262.187-2.75.416M19 66.066c0 2.236.438 4.884.974 5.885 1.424 2.661 5.764 3.451 8.632 1.572C30.601 72.216 31 71.124 31 66.977V62H19v4.066M45 67.3c0 2.915.415 5.728.923 6.25 1.497 1.541 1.611 10.102.158 11.852-.756.912-1.076 2.746-.756 4.339 1.09 5.43 1.593 8.724 1.031 6.759-.733-2.565-2.192-4.342-4.644-5.654-1.402-.75-1.761-.735-1.274.054.374.605.152 1.1-.494 1.1-.836 0-.982 1.543-.505 5.359.605 4.845.416 5.66-1.974 8.5-3.02 3.589-2.342 3.973 2.163 1.226l3.128-1.907 2.122 2.871c2.313 3.128 2.722 4.44 1.065 3.416-.581-.359-2.174-.373-3.54-.03-2.266.569-2.42.948-1.767 4.344 1.045 5.428.728 7.204-1.758 9.851-1.391 1.481-1.737 2.37-.92 2.37 1.792 0 8.042-3.949 8.042-5.082 0-.505.459-.918 1.019-.918.588 0 .753 1.058.392 2.5-.379 1.508-.2 2.5.449 2.5.597 0 .799-.781.454-1.75-.438-1.232.237-.955 2.282.936 2.792 2.583 7.279 4.814 9.681 4.814.631 0-.334-1.238-2.145-2.75-2.694-2.25-3.345-3.569-3.583-7.25-.16-2.475-.349-4.838-.42-5.25-.071-.412-1.479-.75-3.129-.75-2.096 0-3-.487-3-1.617 0-1.216.557-1.444 2.25-.919 1.237.384 3.375.942 4.75 1.241 2.174.473 2.044.23-1-1.865-3.09-2.128-3.569-3.05-4.09-7.875-.325-3.006-.479-5.611-.343-5.789.136-.178 1.617.385 3.29 1.25 5.174 2.676 6.563 1.882 2.678-1.53C52.645 95.36 52 94.094 52 90.968c0-2.104-.675-4.5-1.5-5.325-.885-.885-1.5-3.329-1.5-5.963 0-4.033.265-4.53 2.744-5.152C56.078 73.44 57 72.099 57 66.878V62H45v5.3m25.198-.058c.265 4.594.642 5.404 3.052 6.554 2.27 1.084 3.23 1.084 5.5 0 2.41-1.15 2.787-1.96 3.052-6.554L82.105 62h-12.21l.303 5.242M95 66.309c0 5.821 1.823 8.091 6.5 8.091s6.5-2.27 6.5-8.091V62H95v4.309m26.198.908c.254 4.395.705 5.443 2.859 6.647 2.203 1.232 2.966 1.235 5.5.025 2.63-1.256 2.975-1.963 3.245-6.647l.303-5.242h-12.21l.303 5.217m25 .025c.27 4.684.615 5.391 3.245 6.647 2.534 1.21 3.297 1.207 5.5-.025 2.154-1.204 2.605-2.252 2.859-6.647l.303-5.217h-12.21l.303 5.242m25.802.097c0 4.757.279 5.467 2.557 6.505 3.151 1.436 7.168.538 8.469-1.893.536-1.001.974-3.649.974-5.885V62h-12v5.339m25-.362c0 4.161.397 5.237 2.42 6.562 1.33.872 3.243 1.445 4.25 1.273 1.499-.256 1.801.301 1.668 3.075-.09 1.863-.765 3.775-1.5 4.25-1.999 1.29.229 2.369 4.816 2.332 3.269-.026 3.897-.385 4.184-2.39.247-1.723-.052-2.211-1.103-1.808-2.941 1.129-6.421-6.111-3.735-7.771.55-.34 1-2.841 1-5.559V62h-12v4.977m25-.911c0 2.236.438 4.884.974 5.885 1.287 2.405 5.308 3.333 8.38 1.933 2.059-.938 2.525-1.949 2.808-6.088.186-2.73.151-5.151-.079-5.38-.229-.229-3.041-.416-6.25-.416H222v4.066M200 83.8c0 .672-1.346 1.2-3.059 1.2-1.804 0-2.803.414-2.435 1.01.666 1.077-2.902 6.261-3.735 5.427-.273-.272-.459 1.993-.415 5.034.044 3.041.432 5.529.862 5.529s.782.689.782 1.531c0 .843.701 1.801 1.557 2.129.857.329 1.335 1.178 1.064 1.886-.491 1.279 1.349 2.454 3.844 2.454 1.154 0 2.834-3.714 2.257-4.99-.361-.797 5.687-1.704 6.778-1.017 3.692 2.326 6.102-2.183 2.511-4.698-1.593-1.116-2.012-2.156-1.572-3.908.666-2.654-.402-3.012-3.707-1.244-1.606.86-2.232.858-2.52-.006-.21-.632-.791-.897-1.29-.589-1.039.642-.662-4.149.54-6.865.48-1.085.347-2.274-.329-2.95-.844-.844-1.133-.827-1.133.067M98.71 86c-.287 1.1-.167 2 .267 2 .434 0 1.025-.9 1.313-2 .287-1.1.167-2-.267-2-.434 0-1.025.9-1.313 2m-5.96-.427c-.412.418-.718 3.723-.68 7.344.071 6.665 1.107 11.225 2.161 9.517.743-1.203 2.774-12.17 2.754-14.868-.029-3.823-1.938.585-2.138 4.934-.151 3.287-.287 2.958-.765-1.844-.32-3.214-.92-5.501-1.332-5.083m35.869 2.686c-1.407 7.593-1.692 13.578-.677 14.205.656.405 1.058-.509 1.058-2.405 0-1.682.502-3.059 1.117-3.059.651 0 .917 1.041.638 2.5-.692 3.621.773 3.071 1.998-.75.99-3.087 1.048-3.118 1.145-.622.142 3.65 2.585 5.595 3.991 3.177.997-1.713 1.052-1.707 1.081.112.05 3.148 1.35.856 2.09-3.686l.69-4.231.125 4.25c.069 2.338.575 4.25 1.125 4.25s1.063-1.912 1.14-4.25c.077-2.338.237-5.937.356-8 .232-4.027-1.131-5.23-1.7-1.5-.189 1.237-.895 2.138-1.57 2-.674-.138-1.226.462-1.226 1.333s-.562 1.377-1.25 1.125c-.687-.252-1.123-1.006-.969-1.677.155-.67-.295-1.029-1-.796-.704.232-1.426 1.406-1.602 2.608-.632 4.292-1.927 1.099-1.411-3.477.379-3.361.205-4.467-.621-3.957-.631.39-1.147 2.257-1.147 4.15 0 1.893-.509 3.441-1.131 3.441-.733 0-.932-1.226-.566-3.482.718-4.421-.877-5.614-1.684-1.259m23.624-1.575c-.684 1.202-1.243 3.088-1.243 4.191 0 1.104-.461 2.292-1.025 2.64-.563.349-.96.263-.881-.191.73-4.204-1.545-4.337-2.996-.175-1.372 3.935-1.431 9.851-.098 9.851.55 0 1.007-.562 1.015-1.25.01-.774.295-.869.75-.25.404.55 1.635.996 2.735.991 1.446-.007 2.017-.699 2.061-2.5.033-1.37.407-4.107.831-6.083s.619-4.901.433-6.5c-.332-2.851-.363-2.865-1.582-.724m2.952.816c.02 1.65.244 2.204.498 1.231.254-.973.237-2.323-.037-3-.274-.677-.481.119-.461 1.769m-56.082 3.421C97.371 92.009 96.252 102 97.873 102c.62 0 1.172-1.013 1.227-2.25.095-2.151.133-2.14.862.25.763 2.5.924 2.364 2.38-2 .275-.825.536-.289.579 1.191.099 3.359 1.624 4.422 2.987 2.08.966-1.659 1.033-1.65 1.062.146.046 2.911 1.25 1.076 2.071-3.156l.729-3.761.115 3.691c.063 2.03.537 3.952 1.054 4.271 1.341.829 2.882-2.362 2.343-4.854-.35-1.62-.224-1.78.542-.694.548.778.753 2.915.456 4.75-.321 1.978-.121 3.336.491 3.336 1.512 0 3.462-6.167 2.314-7.315-.589-.589-.541-1.583.127-2.652.758-1.214.756-2.265-.005-3.622-1.01-1.8-1.112-1.808-1.758-.132-.657 1.706-.74 1.706-1.998 0-1.228-1.664-1.372-1.622-2.219.647l-.907 2.427-.768-2.427c-.655-2.067-.84-2.156-1.25-.604-.458 1.732-.545 1.735-1.767.063-1.193-1.631-1.343-1.582-2.061.678-.735 2.312-.815 2.334-1.557.437-.713-1.826-.798-1.782-.97.5l-.189 2.5-.631-2.722c-.465-2.003-.999-2.494-2.019-1.857m57.887.138c0 .582-.397.814-.882.514-1.266-.783-2.942 6.622-2.027 8.961.423 1.081.8 1.559.839 1.061.038-.498.97-.09 2.07.905 1.1.995 2 1.346 2 .78 0-1.528 4.781-1.248 6.114.357.871 1.05 1.484 1.111 2.519.253 1.583-1.314 1.84-6.48.367-7.39-.55-.34-.968-1.379-.93-2.309.058-1.379.229-1.321.93.309.767 1.786.867 1.712.93-.691.097-3.726-1.716-4.497-2.589-1.1-.695 2.705-.734 2.72-1.279.482-.893-3.669-2.365-3.046-4.28 1.809l-1.776 4.5.611-4.75c.508-3.956.34-4.75-1.003-4.75-.888 0-1.614.477-1.614 1.059M121.027 92c-.598 3.806-.449 14.76.196 14.362.784-.484 2.199-5.59 3.246-11.71.447-2.611.316-3.637-.405-3.191-.585.361-1.123 1.868-1.196 3.348-.115 2.356-.223 2.256-.868-.809-.405-1.925-.843-2.825-.973-2m15.225 4.5c.011 2.2.216 2.982.455 1.738.239-1.244.23-3.044-.02-4s-.446.062-.435 2.262m10.943-1c.02 1.65.244 2.204.498 1.231.254-.973.237-2.323-.037-3-.274-.677-.481.119-.461 1.769m8.884 1.05c.078 3.906.09 3.918 1.112 1.112.734-2.013.711-3.16-.078-3.949-.817-.817-1.092-.063-1.034 2.837m6.116-.05c.02 1.65.244 2.204.498 1.231.254-.973.237-2.323-.037-3-.274-.677-.481.119-.461 1.769m-56.116 1.083c.048 1.165.285 1.402.604.605.289-.722.253-1.585-.079-1.917-.332-.332-.568.258-.525 1.312M165 99.059c0 1.132.43 1.793.956 1.468.526-.325.703-1.252.393-2.059-.793-2.067-1.349-1.824-1.349.591m-25.909 9.977c-3.602 1.521-5.024 3.983-5.059 8.759-.039 5.204 2.831 8.582 8.137 9.577 4.834.907 10.953-1.229 12.529-4.372 1.192-2.379 1.103-2.516-1.85-2.823-1.706-.177-3.585.16-4.175.75-1.564 1.564-6.23 1.312-7.662-.414-.708-.853-.965-2.559-.604-4 .52-2.072 1.232-2.513 4.053-2.513 1.882 0 3.7.45 4.04 1 .785 1.27 7.5 1.32 7.5.056 0-.52-1.039-2.152-2.309-3.629-1.803-2.096-3.391-2.763-7.25-3.046-2.717-.2-6.025.095-7.35.655M202 111.004c-1.375 1.62-3.062 2.746-3.75 2.502-.687-.244-1.25-.019-1.25.5 0 .523-1.389.666-3.114.321-2.923-.584-3.045-.493-1.987 1.485.62 1.159 1.009 2.677.865 3.374-.145.696.748 1.421 1.986 1.61 1.238.189 2.25.806 2.25 1.372 0 .892 2.818 7.63 3.646 8.719.162.212 2.239-1.673 4.617-4.19 3.973-4.206 4.334-5.029 4.453-10.149.072-3.064-.262-5.329-.742-5.032-.481.297-1.362-.373-1.959-1.488-1.422-2.657-2.031-2.538-5.015.976M103 118v9h2.945c2.804 0 2.96-.228 3.25-4.75l.305-4.75 2.993 4.75c1.717 2.726 3.74 4.75 4.748 4.75 1.009 0 3.024-2.02 4.738-4.75l2.983-4.75.019 4.75c.018 4.607.109 4.75 3.019 4.75h3v-18h-3.882c-3.51 0-4.167.438-6.859 4.577l-2.977 4.578-2.891-4.576c-2.693-4.262-3.182-4.576-7.141-4.577L103 109v9m103.119 18c-.143 5.225-.604 10.381-1.025 11.458-.66 1.686-1.02 1.383-2.595-2.188l-1.829-4.146-7.335.558c-4.655.355-7.335.189-7.335-.455 0-.557.736-1.296 1.636-1.641 1.503-.577 1.497-.781-.073-2.517-1.465-1.619-2.844-1.836-9.636-1.518-7.334.343-7.927.224-7.927-1.59 0-2.365 1.419-2.259-27.25-2.024L135 132v6.07c0 5.729-.126 6.05-2.25 5.726-1.288-.197-2.12-.936-1.947-1.728.525-2.401-1.478-2.714-16.072-2.516-17.337.236-16.072.036-15.441 2.448.414 1.585.03 2-1.848 2-1.347 0-2.833-.863-3.44-1.997-.733-1.368-2.081-1.99-4.285-1.977-3.67.022-12.204.012-18.488-.021-3.679-.02-4.408.334-5.25 2.551-1.231 3.237-1.228 3.716.021 2.944 1.908-1.179.903 1.018-2.041 4.462-3.135 3.668-3.84 3.203-1.459-.962 2.467-4.316 1.942-5-3.845-5-4.08 0-5.775.475-7.161 2.006-2.314 2.558-1.256 3.662 2.062 2.151l2.564-1.169-1.776 3.006c-1.084 1.835-2.568 2.981-3.81 2.943-1.792-.056-1.737-.196.466-1.174 2.494-1.107 2.495-1.111.25-1.506-2.463-.434-2.439-.304-2.634-13.757l-.116-8h-3c-2.999 0-3 .001-2.706 5.399.258 4.731-.043 5.752-2.437 8.25-3.244 3.386-1.552 3.753 3.347.725l3.439-2.126-.321 9.376-.322 9.376h161l-.262-11c-.438-18.366-.837-22.825-1.119-12.5M79 143c0 .55.477 1 1.059 1s.781-.45.441-1-.816-1-1.059-1-.441.45-.441 1m29.75-.311c-2.396.626-2.213 2.311.25 2.311 1.111 0 2-.667 2-1.5 0-.825-.112-1.448-.25-1.384-.138.064-1.037.322-2 .573M84.5 144c.34.55 1.041 1 1.559 1s.941-.45.941-1-.702-1-1.559-1-1.281.45-.941 1m5.5 1c0 .55.423 1 .941 1s1.219-.45 1.559-1c.34-.55-.084-1-.941-1S90 144.45 90 145m-21 1.583c0 .871.534 1.406 1.188 1.188 1.854-.618 2.161-2.771.395-2.771-.87 0-1.583.713-1.583 1.583m9-.583c0 .55.675 1 1.5 1s1.5-.45 1.5-1-.675-1-1.5-1-1.5.45-1.5 1m38.8 2.2c.933.933 1.467.933 2.4 0 .933-.933.667-1.2-1.2-1.2s-2.133.267-1.2 1.2m-35.27.751c-.356.577-.208 1.049.329 1.049.538 0 1.689.273 2.559.607.932.358 1.582.084 1.582-.667 0-.7-.296-.977-.658-.615-.362.362-1.222.19-1.911-.382-.868-.721-1.452-.718-1.901.008m-7.717.732c.721.289 1.584.253 1.916-.079.332-.332-.258-.568-1.312-.525-1.165.048-1.402.285-.604.604m-7.229 1.958c-.527 1.373-.38 1.435.893.378 1.735-1.44 1.916-2.019.63-2.019-.491 0-1.176.739-1.523 1.641m50.666.439c1.189.692 2.311.692 3.5 0 1.428-.831 1.105-1.019-1.75-1.019s-3.178.188-1.75 1.019m-16.051 1.471c-2.632 2.982-.018 3.62 10.551 2.573.688-.068 1.25-.799 1.25-1.624 0-.825-.562-1.506-1.25-1.514-.687-.007-2.263-.285-3.5-.616-1.74-.467-2.257-.18-2.28 1.263-.029 1.747-.096 1.755-1.05.117-1.227-2.106-2.002-2.147-3.721-.199m100.551-.889c.688.278 1.813.278 2.5 0 .688-.277.125-.504-1.25-.504s-1.937.227-1.25.504m-144.14 2.911c-.42 1.096-.099 1.475 1.061 1.25.915-.178 1.851-.885 2.079-1.573.613-1.839-2.43-1.526-3.14.323m6.057-.906c-1.017 1.016-.795 2.333.392 2.333.582 0 .805-.412.494-.915-.311-.503 0-1.142.691-1.421.694-.28.772-.541.173-.585-.596-.043-1.384.221-1.75.588M42 166.378c0 5.041-1.425 4.946 66.187 4.39 61.623-.508 63.078-.476 60.725 1.334-2.146 1.649-4.789 2.31-8.662 2.167-.687-.026-1.25.353-1.25.842 0 .506-25.324.991-58.75 1.127l-58.75.237 57.5.513c31.625.281 56.387.737 55.027 1.012-1.973.399-2.506 1.155-2.632 3.736-.099 2.012.233 2.994.877 2.596.601-.371.737-.155.323.513-.392.635-1.292 1.155-2 1.155-1.466 0-7.838-2.99-8.595-4.032-.275-.379-2-1.458-3.833-2.397-2.683-1.375-3.94-1.497-6.437-.627-2.096.731-3.433.753-4.117.069-1.118-1.118-7.525-1.368-10.068-.392-1.973.757-4.857 6.064-4.027 7.408.33.534-.069.971-.886.971-.818 0-2.367 1.119-3.442 2.486l-1.956 2.486-32.867.278-32.867.278 33.25.236L108 193v15l-13.25.154c-7.287.085-22.25.197-33.25.25l-20 .096-.322-3.372-.323-3.372-7.177.673c-20.331 1.905-34.671 5.155-33.207 7.524 5.485 8.874 139.977 13.171 217.529 6.949 20.455-1.641 34.839-4.289 37.391-6.885 1.16-1.179 1.659-2.043 1.109-1.919-.55.124-2.26-.295-3.801-.931-1.54-.636-8.515-1.976-15.5-2.978l-12.699-1.823-.294-7.183c-.161-3.951-.724-7.183-1.25-7.183s-.956-1.42-.956-3.155c0-6.922-11.046-13.312-19.718-11.407-2.193.482-3.354.139-4.748-1.4-1.835-2.028-1.815-2.038 3.746-2.038 7.121 0 10.72-1.335 10.72-3.975 0-2.017-.32-2.025-85-2.025H42v2.378m131.079 14.205c.048 1.165.285 1.402.604.605.289-.722.253-1.585-.079-1.917-.332-.332-.568.258-.525 1.312M133 181c-.901.582-1.025.975-.309.985.655.008 1.469-.435 1.809-.985.767-1.242.421-1.242-1.5 0m43.211.601c-.71.769-.849 1.399-.309 1.399 1.038 0 2.541-1.902 1.948-2.466-.192-.183-.93.297-1.639 1.067m-56.782 1.185c0 1.032.736 1.785 1.746 1.785 1.614 0 1.624-.136.131-1.785-.889-.982-1.675-1.786-1.747-1.786-.072 0-.13.804-.13 1.786m34.737-.91c-1.057.67-.976.983.393 1.508.95.365 1.963.427 2.251.14.288-.288-.028-.524-.702-.524-.674 0-.948-.45-.608-1 .748-1.21.427-1.24-1.334-.124m-24.166.847c0 .58.927 2.118 2.059 3.416l2.06 2.361-1.757-3c-2.312-3.948-2.362-4.007-2.362-2.777m-6.857 4.167c-.946.6-1.021 1.067-.25 1.544.609.376 1.107.236 1.107-.312 0-.588 1.498-.753 3.655-.403 2.629.426 3.455.268 2.941-.563-.832-1.348-5.484-1.513-7.453-.266m12.316.177c-.363.586-.445 1.281-.183 1.543s.743-.218 1.069-1.067c.676-1.762.1-2.072-.886-.476" fill="#1976D2" fill-rule="evenodd"/><path fill-opacity=".283" d="M45.686 87.376c-.937 2.442 1.201 8.321 3.583 9.856C51.618 98.745 58 101.156 58 100.53c0-.202-1.578-1.342-3.506-2.534-1.931-1.193-3.21-2.647-2.846-3.236.378-.611.192-.779-.435-.392-.714.442-1.203-.807-1.404-3.587-.317-4.368-2.926-6.523-4.123-3.405m46.886-.107c-.986 2.179.307 15.282 1.391 14.09.429-.473.472-4.234.095-8.359-.456-5.003-.951-6.911-1.486-5.731m3.507.314c.048 1.165.285 1.402.604.605.289-.722.253-1.585-.079-1.917-.332-.332-.568.258-.525 1.312M129.123 87c-1.106 7.342-1.578 15-.925 15 .441 0 .802-1.125.802-2.5 0-3.419 1.975-3.184 2.1.25.091 2.469.18 2.393.881-.75 1.515-6.799 1.992-13 1-13-.54 0-.981 1.548-.981 3.441 0 5.054-1.819 5.32-2.267.332-.211-2.35-.485-3.598-.61-2.773m13.965-.5c-1.103 7.413-1.153 15.5-.096 15.5.784 0 1.014-.84.639-2.335-.322-1.284-.233-3.646.199-5.25.432-1.603.476-4.265.096-5.915-.379-1.65-.756-2.55-.838-2m7.896 6.594c-.792 4.697-.861 7.429-.203 8.087.658.658 1.244.588 1.734-.206.408-.659.257-1.498-.334-1.863-.661-.409-.736-1.214-.194-2.091.485-.785.648-2.798.363-4.474-.399-2.344-.272-2.701.55-1.547.848 1.189 1.073.827 1.085-1.75.027-5.76-1.769-3.46-3.001 3.844m4.095-5.511c.048 1.165.285 1.402.604.605.289-.722.253-1.585-.079-1.917-.332-.332-.568.258-.525 1.312M95.232 93c0 1.925.206 2.713.457 1.75.252-.963.252-2.537 0-3.5-.251-.963-.457-.175-.457 1.75m20.351-2.134c-.431.697-.513 1.537-.183 1.867.895.895 1.871-.421 1.387-1.871-.338-1.016-.574-1.016-1.204.004m19.466 2.952c-1.224 4.545-.608 8.535 1.223 7.925.607-.203 1.278-1.015 1.492-1.805.316-1.17.19-1.158-.673.062-.802 1.135-1.039.284-.973-3.5l.087-5 1.741 5.406 1.742 5.406.645-3.906c.355-2.148.605-4.806.556-5.906-.071-1.614-.226-1.518-.803.5l-.714 2.5-1.585-2.981-1.585-2.982-1.153 4.281m22.387-2.714c-.436.705-.328 1.432.24 1.621.706.236.709 1.751.009 4.808-1.041 4.551-.297 7.075 1.317 4.464.529-.857.517-1.676-.031-2.015-.557-.344-.504-2.089.133-4.396 1.093-3.96-.066-7.074-1.668-4.482m4.812.511c-1.47 2.867-2.111 7.658-1.312 9.812.699 1.885.73 1.885 1.443.028.615-1.602.874-1.669 1.659-.427.647 1.023.931-.055.931-3.528 0-6.027-1.255-8.743-2.721-5.885m-64.073 1.01c-.096 1.169-.46 3.644-.807 5.5-.486 2.593-.355 3.117.564 2.261.71-.661 1.038-2.898.807-5.5-.214-2.412-.468-3.43-.564-2.261m1.963 3.875c-.059 4.554.17 5.575.949 4.238.678-1.164.704-3.201.077-6l-.95-4.238-.076 6m4.325-4.25c-.92 2.425-.951 8.25-.044 8.25.506 0 .973-2.138 1.039-4.75.122-4.825-.141-5.75-.995-3.5M107.5 96c-.388 2.82-.48 5.353-.205 5.628.275.275.817-1.808 1.205-4.628.388-2.82.48-5.353.205-5.628-.275-.275-.817 1.808-1.205 4.628m4.051-4.083c-.311.504-.858 3.04-1.213 5.635-.522 3.81-.376 4.619.758 4.208 1.477-.537 1.516-1.066.308-4.174-.428-1.101-.353-1.674.176-1.348.506.311.968-.74 1.026-2.336.113-3.054-.122-3.495-1.055-1.985m9.757 6.466c.05 8.024 1.139 7.747 1.973-.501.244-2.41.196-3.257-.107-1.882-.477 2.167-.641 1.968-1.232-1.5-.514-3.01-.671-2.05-.634 3.883m24.79-4.234C145.494 95.881 145 98.33 145 99.59c0 2.72 1.964 4.344 2.079 1.719.046-1.049.291-1.284.583-.559 1.143 2.831 1.817.915 1.495-4.249-.385-6.197-1.437-7.005-3.059-2.352m8.501 1.665c-.442 2.923-.562 5.556-.266 5.852.784.784 1.907-5.993 1.455-8.785-.246-1.523-.675-.466-1.189 2.933m12.068-4.147c-1.101 1.1-.752 6.848.491 8.091.876.876.842 1.537-.143 2.724-.715.861-1.028 1.839-.695 2.171.333.333 1.159-.611 1.837-2.098.958-2.103.966-3.128.037-4.616-.657-1.051-1.162-2.93-1.124-4.175.067-2.155.112-2.168.93-.264.82 1.908.863 1.897.93-.25.069-2.204-.938-2.908-2.263-1.583M41.511 92.983c-.335.541-.31 2.569.053 4.508.542 2.888.18 4.156-2.002 7.017-2.785 3.65-2.423 4.458.879 1.96 2.61-1.974 3.053-1.874 4.355.984 1.112 2.44 4.439 4.622 9.204 6.037 1.891.561 1.496.004-1.619-2.285-4.446-3.267-6.063-7.062-4.362-10.239.586-1.096.71-1.934.274-1.861-2.142.359-3.459-.23-3.031-1.354.624-1.642-.927-5.75-2.171-5.75-.535 0-1.246.442-1.58.983M102.158 94c0 1.375.227 1.938.504 1.25.278-.687.278-1.812 0-2.5-.277-.687-.504-.125-.504 1.25m-63.079.583c.048 1.165.285 1.402.604.605.289-.722.253-1.585-.079-1.917-.332-.332-.568.258-.525 1.312m107.743.917c-.645 2.996-.333 4.344.753 3.258.317-.316.422-1.854.234-3.417l-.342-2.841-.645 3m15.178.667c0 3.659 1.021 3.249 1.441-.579.156-1.423-.104-2.588-.579-2.588-.474 0-.862 1.425-.862 3.167m-48-.449c0 1.19.45 2.442 1 2.782.55.34.993 1.604.985 2.809-.013 1.781-.197 1.91-.985.691-.819-1.268-.972-1.216-.985.333-.008 1.024.537 1.652 1.235 1.423 1.892-.621 2.083-5.442.315-7.966L114 93.555v2.163m80.45-.637c-.283.458-1.113.602-1.846.321-1.494-.574-3.198 5.569-1.813 6.532.448.311 2.082 2.254 3.631 4.316 2.616 3.484 5.578 4.979 5.578 2.815 0-.514.525-2.202 1.166-3.75.642-1.548 1.211-3.04 1.266-3.315.054-.275.476-1.096.938-1.824 1.186-1.87-2.884-5.926-5.945-5.926-1.354 0-2.693.374-2.975.831M40.158 99c0 1.375.227 1.938.504 1.25.278-.687.278-1.812 0-2.5-.277-.687-.504-.125-.504 1.25m1.109 15.951c-.121 2.275-.043 2.334.728.549.691-1.6.879-1.666.935-.332.038.918.337 2.493.664 3.5.507 1.561.42 1.61-.586.332-.983-1.248-1.098-1.118-.681.776.333 1.519-.369 3.309-2.109 5.377l-2.609 3.101 3.186-1.648c1.752-.906 3.932-2.786 4.843-4.177l1.658-2.529 1.453 3.001c1.546 3.192 4.198 5.32 8.216 6.59 2.149.68 1.989.331-1.25-2.723-2.962-2.794-3.715-4.241-3.715-7.136 0-3.44-.633-4.091-3.629-3.734-.621.074-1.366-.772-1.656-1.879-.82-3.136-5.272-2.375-5.448.932m156.771 1.508c-1.577 1.679-1.968 2.973-1.481 4.911.363 1.446 1.025 2.63 1.472 2.63.447 0 1.109 1.35 1.471 3 .792 3.605 1.679 3.735 4.705.688 6.133-6.177 6.179-10.555.13-12.306-3.845-1.113-4.315-1.033-6.297 1.077M53.252 119.5c.011 2.2.216 2.982.455 1.738.239-1.244.23-3.044-.02-4s-.446.062-.435 2.262m-8.041 9.351c-.908.574-1.089 2.062-.612 5.042.619 3.869.388 4.53-2.712 7.785l-3.387 3.556 3.162-1.597c4.157-2.1 7.338-6.253 7.338-9.581 0-3.436-2.075-6.287-3.789-5.205m-3.132 1.732c.048 1.165.285 1.402.604.605.289-.722.253-1.585-.079-1.917-.332-.332-.568.258-.525 1.312M136 137.255v5.256l5.914-.202c4.375-.149 6.058.175 6.468 1.245.305.795.029 1.446-.613 1.446-.874 0-.867.302.031 1.2.66.66 1.2 2.91 1.2 5v3.8l8.25.079c4.537.043 7.644.32 6.904.615-.741.295-7.378.214-14.75-.181L136 154.795v-4.897c0-4.422-.219-4.895-2.25-4.866-2.933.041-6.4 2.547-4.553 3.291 1.023.412.981.75-.197 1.575-1.168.818-1.571.614-1.82-.924-.175-1.086-.85-1.98-1.5-1.988-.649-.007-2.193-.285-3.43-.616-1.654-.444-2.25-.175-2.25 1.013 0 2.577-3.806 2.001-4.18-.633-.414-2.913-4.82-3.845-4.82-1.02 0 1.029.559 2.429 1.242 3.112.988.988.938 1.431-.25 2.174-1.114.697-1.573.433-1.812-1.042-.19-1.173-1.102-1.974-2.25-1.974-1.292 0-1.93-.692-1.93-2.094 0-1.252-.803-2.303-2-2.616-2.225-.582-2.645-1.908-.801-2.523.796-.265.681-.599-.34-.991-.847-.325-2.146-.217-2.885.24-1.11.686-1.117 1.107-.037 2.408 1.15 1.386.867 1.576-2.346 1.576-2.325 0-3.863.545-4.229 1.5-.735 1.915-3.254 1.945-3.982.047-.446-1.162-.935-1.217-2.444-.275-1.557.973-2.15.833-3.395-.797-1.488-1.948-1.517-1.945-2.141.275-.85 3.022-3.051 2.858-3.649-.273-.473-2.471-.379-2.514 4.633-2.104 2.814.231 5.903.739 6.866 1.13.963.391 2.537.408 3.5.037 3.712-1.43-2.054-2.863-10.698-2.658-4.704.111-9.227.177-10.052.147-6.049-.223-6.585.005-5.662 2.41.426 1.109 1.416 1.36 3.624.919 3.297-.66 4.163 1.061 1.788 3.554-1.022 1.074-.795 1.175 1.248.554 3.516-1.067 13.114-.618 14.687.688 1.696 1.407 1.706 4.846.015 4.846-.715 0-1.859-.559-2.542-1.242-.988-.988-1.436-.938-2.2.25-.644 1.004-1.203 1.141-1.708.419-1.281-1.833-4.368-2.579-4.04-.977.159.781-.16 1.336-.71 1.234-.55-.101-.956-.634-.903-1.184.053-.55-1.414-1-3.261-1-2.532 0-3.949.739-5.758 3-2.596 3.246-4.821 2.72-2.721-.643 2.083-3.334.518-3.283-1.957.064-1.252 1.694-2.866 3.079-3.588 3.079-1.716 0-1.674-1.454.083-2.913.768-.637 1.704-2.799 2.08-4.803.439-2.344.963-3.194 1.465-2.381.607.982.909.932 1.352-.221.314-.818.301-1.755-.028-2.084-1.816-1.817-4.579.082-9.213 6.333-2.826 3.812-5.611 7.089-6.19 7.282-.578.193 35.074.488 79.226.657l80.277.307-3.076-2.589c-3.518-2.959-4.475-3.239-3.64-1.064.512 1.336-1.562 1.49-16.782 1.25L166.5 156.5l.086-4.25c.079-3.894-.13-4.261-2.5-4.386-2.244-.118-2.298-.192-.412-.56 1.196-.233 2.909-1.546 3.808-2.917.899-1.372 2.621-2.885 3.826-3.362 1.525-.603-.092-.854-5.308-.825-10.35.058-11.227-.057-13.495-1.771-1.712-1.294-1.783-1.642-.5-2.453.822-.52 2.92-.952 4.662-.961 1.741-.008 3.393-.577 3.671-1.265.403-1 .52-1 .583 0 .043.688 1.167 1.25 2.496 1.25s2.679-.562 3-1.25c.466-1 .7-1 1.166 0 .782 1.675 2.492 1.609 1.847-.072-.374-.974-3.231-1.331-10.882-1.357-9.124-.031-10.302.158-9.768 1.572.514 1.357.334 1.335-1.157-.143-1.89-1.873-6.623-2.409-6.623-.75 0 .55.45 1 1 1s1 .528 1 1.174c0 .646-1.042.196-2.314-1-3.666-3.444-4.686-2.773-4.686 3.081m-92.921-2.672c.048 1.165.285 1.402.604.605.289-.722.253-1.585-.079-1.917-.332-.332-.568.258-.525 1.312m96.671 2.033c-.387.614.187 1.922 1.274 2.905 1.128 1.022 1.976 1.294 1.976.634 0-.635-.417-1.155-.927-1.155-.509 0-1.082-.787-1.273-1.75-.222-1.119-.6-1.347-1.05-.634m5.75.384c-.34.55.084 1 .941 1s1.559-.45 1.559-1-.423-1-.941-1-1.219.45-1.559 1m-38.5 4.329c0 1.83 1.832 1.836 8.25.029.963-.271 1.75-.112 1.75.352 0 .465 2.813.79 6.25.722 8.097-.161 8.362-.22 6.997-1.585-.717-.717-5.319-1.189-12.2-1.25-10.073-.088-11.047.064-11.047 1.732m71.805-.003c1.569.7 2.598.671 3.365-.096.805-.805.194-1.078-2.261-1.008-3.114.088-3.197.17-1.104 1.104m-62.349 9.745c-1.041 1.685 1.524 2.887 4.084 1.914 1.332-.507 2.613-.432 3.232.187.6.6 2.005.7 3.377.242 2.07-.692 1.83-.879-2.003-1.565-2.395-.429-5.169-1.039-6.166-1.355-.996-.317-2.132-.057-2.524.577m-14.801 1.758c-2.954 3.264-1.985 3.986 5.443 4.056 5.717.053 6.992-.208 6.556-1.345-.298-.776-.004-1.629.652-1.896 1.181-.481-1.713-1.016-3.981-.736-.646.08-1.46-.317-1.809-.881-.97-1.57-2.318-1.225-2.827.723-.435 1.667-.463 1.667-.573 0-.149-2.251-1.378-2.223-3.461.079m76.895-.909c-.348.562.457 1.295 1.788 1.629 3.19.8 7.668.209 7.943-1.049.292-1.336-8.925-1.885-9.731-.58m6.696 18.467c-.084 1.112.332 2.604.923 3.317.771.928.763 1.296-.028 1.296-.606 0-1.385 1.125-1.73 2.5s-1.104 2.5-1.686 2.5c-1.391 0-.034 1.337 1.6 1.577.697.102 1.33-.648 1.407-1.668.077-1.02 1.06-2.843 2.186-4.051 1.544-1.658 1.775-2.523.942-3.527-.88-1.06-.461-1.331 2.057-1.331 2.488 0 2.912-.266 1.989-1.25-.645-.687-2.598-1.28-4.34-1.317-2.487-.052-3.201.368-3.32 1.954m-13.217.574c-.96.607.585.763 4.453.449 3.258-.265 6.132-.691 6.387-.946.895-.895-9.384-.424-10.84.497m4.791 3.756c-1.509 1.818 1.182 1.69 4.816-.23l2.864-1.514-3.308.231c-1.819.127-3.787.808-4.372 1.513m14.18.176c0 .491.712 1.166 1.582 1.5 2.446.939 2.769.735 1.418-.893-1.38-1.662-3-1.99-3-.607m18.75-.177c-2.736.415-3.701 2.578-1.701 3.814.716.443.678 1.094-.123 2.059-1.575 1.898-.177 1.804 1.745-.117 1.219-1.219 1.281-1.825.306-3-1.011-1.217-.855-1.472.901-1.472 1.167 0 2.122-.45 2.122-1s-.113-.933-.25-.85c-.137.082-1.488.337-3 .566m-50.704 2.198c-.614 1.148-.699 2.086-.188 2.086 1.028 0 2.446-3.029 1.747-3.729-.244-.243-.945.496-1.559 1.643m2.037 2.369c.23.156 1.317.943 2.417 1.75 1.85 1.357 1.897 1.336.628-.283-.755-.963-1.843-1.75-2.417-1.75-.574 0-.857.127-.628.283M199 180c-1.333.862-1.333.969 0 .969.825 0 2.175-.436 3-.969 1.333-.862 1.333-.969 0-.969-.825 0-2.175.436-3 .969m14.48 1.98c.08 1.088.527 2.326.993 2.75.466.423.524.208.128-.48-.395-.687-.257-1.25.309-1.25.565 0 .768-.675.452-1.5-.829-2.159-2.053-1.847-1.882.48m-75.28 3.22c-.66.66-1.2 2.01-1.2 3 0 1.562.926 1.8 7 1.8 3.85 0 7-.417 7-.927 0-.511-1.186-1.861-2.635-3-2.903-2.284-8.291-2.747-10.165-.873m41.812 1.212c.651.651 1.38.596 2.137-.161.866-.866.622-1.109-.988-.988-1.408.106-1.8.498-1.149 1.149M162.732 188c-1.687 1.97-1.617 2 4.778 2 7.021 0 8.351-1.156 3.341-2.902-4.481-1.562-6.17-1.375-8.119.902m-51.173.333c-1.635 1.196-1.422 1.335 2.059 1.353 2.25.012 2.868-.166 1.47-.424-1.865-.343-2.092-.646-1-1.337.777-.492.936-.901.353-.91-.582-.008-1.879.585-2.882 1.318m6.941.667c-.357.577.57.994 2.191.985 2.181-.012 2.474-.232 1.309-.985-1.921-1.242-2.733-1.242-3.5 0m6 0c-.381.617 1.343 1 4.5 1s4.881-.383 4.5-1c-.34-.55-2.365-1-4.5-1s-4.16.45-4.5 1m30.5 0c0 .55.702 1 1.559 1s1.281-.45.941-1c-.34-.55-1.041-1-1.559-1s-.941.45-.941 1m23.079 2.583c.048 1.165.285 1.402.604.605.289-.722.253-1.585-.079-1.917-.332-.332-.568.258-.525 1.312m-58.648.529c-1.127 1.823 1.098 2.459 8.274 2.363 5.538-.074 6.85-.403 7.116-1.783.283-1.468-.669-1.692-7.189-1.692-4.434 0-7.796.456-8.201 1.112m69.229 1.561c-.389.389-2.9.591-5.582.448-2.681-.142-5.172.222-5.536.81-.44.714 1.354 1.069 5.399 1.069 4.164 0 6.069.391 6.089 1.25.017.688.514.419 1.104-.596 1.097-1.887-.116-4.339-1.474-2.981M109.015 196c.009.275.452 1.175.985 2 .646 1 .974 1.083.985.25.011-.949 3.99-1.25 16.515-1.25s16.504.301 16.515 1.25c.011.833.339.75.985-.25.533-.825.976-1.725.985-2 .008-.275-8.31-.5-18.485-.5-10.175 0-18.493.225-18.485.5m.277 6.337c-.285.461.049 1.361.742 2 .965.891 1.095.871.554-.087-.554-.98 3.229-1.25 17.52-1.25 10.024 0 17.979-.247 17.677-.548-.908-.908-35.935-1.018-36.493-.115m73.708-.266l-6.5.584 7.75.172c4.262.095 7.75-.004 7.75-.22 0-.911-2.896-1.084-9-.536m-148.5.625C16.175 204.342.152 207.624.791 209.601c1.887 5.838 83.927 11.437 146.709 10.01 63.593-1.444 102.181-4.94 107.816-9.768 1.201-1.03 1.734-1.786 1.184-1.681-.55.105-2.864-.342-5.142-.995-3.336-.955-22.593-4.075-25.608-4.149-.412-.01-.75 1.557-.75 3.482v3.5h-16.941c-9.318 0-17.159-.352-17.425-.783-.266-.43-4.005-.462-8.309-.071-9.432.858-35.77 1.076-36.543.303-.303-.303-24.228-.521-53.167-.484L40 209.033v-3.517c0-1.934-.337-3.44-.75-3.348-.413.093-2.55.33-4.75.528" fill="#1976D2" fill-rule="evenodd"/></svg>